{
  "accessors": [
    {
      "bufferView": 2,
      "componentType": 5126,
      "count": 4746,
      "max": [
        69.4977035522461,
        60.254600524902344,
        109.55000305175781
      ],
      "min": [
        63.850399017333984,
        54.769798278808594,
        104.6240005493164
      ],
      "type": "VEC3"
    },
    {
      "bufferView": 2,
      "byteOffset": 56952,
      "componentType": 5126,
      "count": 4746,
      "max": [
        0.9999690055847168,
        0.9998760223388672,
        0.9997212290763855
      ],
      "min": [
        -0.9994425177574158,
        -0.9996901750564575,
        -0.9999380111694336
      ],
      "type": "VEC3"
    },
    {
      "bufferView": 3,
      "componentType": 5126,
      "count": 4746,
      "max": [
        0.999927282333374,
        0.9994586110115051,
        0.9947211146354675,
        1.0
      ],
      "min": [
        -0.9999556541442871,
        -0.9997750520706177,
        -0.9947590231895447,
        1.0
      ],
      "type": "VEC4"
    },
    {
      "bufferView": 1,
      "componentType": 5126,
      "count": 4746,
      "max": [
        0.7578250169754028,
        0.8527349829673767
      ],
      "min": [
        0.0726580023765564,
        0.13138997554779053
      ],
      "type": "VEC2"
    },
    {
      "bufferView": 1,
      "byteOffset": 37968,
      "componentType": 5126,
      "count": 4746,
      "max": [
        0.7578250169754028,
        0.8527349829673767
      ],
      "min": [
        0.0726580023765564,
        0.13138997554779053
      ],
      "type": "VEC2"
    },
    {
      "bufferView": 0,
      "componentType": 5125,
      "count": 25176,
      "type": "SCALAR"
    },
    {
      "bufferView": 2,
      "byteOffset": 113904,
      "componentType": 5126,
      "count": 5320,
      "max": [
        68.79149627685547,
        59.56549835205078,
        108.6259994506836
      ],
      "min": [
        64.58360290527344,
        55.70709991455078,
        105.35399627685547
      ],
      "type": "VEC3"
    },
    {
      "bufferView": 2,
      "byteOffset": 177744,
      "componentType": 5126,
      "count": 5320,
      "max": [
        0.9998760223388672,
        0.9973753690719604,
        0.9969143867492676
      ],
      "min": [
        -0.9998760223388672,
        -0.9974676370620728,
        -0.9984844326972961
      ],
      "type": "VEC3"
    },
    {
      "bufferView": 3,
      "byteOffset": 75936,
      "componentType": 5126,
      "count": 5320,
      "max": [
        0.9995049238204956,
        0.9999643564224243,
        0.9998754858970642,
        1.0
      ],
      "min": [
        -0.9984720349311829,
        -0.9997212290763855,
        -1.0,
        -1.0
      ],
      "type": "VEC4"
    },
    {
      "bufferView": 1,
      "byteOffset": 75936,
      "componentType": 5126,
      "count": 5320,
      "max": [
        0.9418799877166748,
        0.9087709784507751
      ],
      "min": [
        0.04548100009560585,
        0.05829101800918579
      ],
      "type": "VEC2"
    },
    {
      "bufferView": 1,
      "byteOffset": 118496,
      "componentType": 5126,
      "count": 5320,
      "max": [
        0.9418799877166748,
        0.9087709784507751
      ],
      "min": [
        0.04548100009560585,
        0.05829101800918579
      ],
      "type": "VEC2"
    },
    {
      "bufferView": 0,
      "byteOffset": 100704,
      "componentType": 5125,
      "count": 23448,
      "type": "SCALAR"
    },
    {
      "bufferView": 2,
      "byteOffset": 241584,
      "componentType": 5126,
      "count": 4003,
      "max": [
        69.92240142822266,
        56.2588996887207,
        109.87699890136719
      ],
      "min": [
        63.07080078125,
        36.887001037597656,
        104.1500015258789
      ],
      "type": "VEC3"
    },
    {
      "bufferView": 2,
      "byteOffset": 289620,
      "componentType": 5126,
      "count": 4003,
      "max": [
        0.9998760223388672,
        0.9997521042823792,
        1.0
      ],
      "min": [
        -0.9999690055847168,
        -1.0,
        -0.9998451471328735
      ],
      "type": "VEC3"
    },
    {
      "bufferView": 3,
      "byteOffset": 161056,
      "componentType": 5126,
      "count": 4003,
      "max": [
        0.9999554753303528,
        0.9981363415718079,
        1.0,
        1.0
      ],
      "min": [
        -0.9999952912330627,
        -0.999896764755249,
        -0.9999772310256958,
        1.0
      ],
      "type": "VEC4"
    },
    {
      "bufferView": 1,
      "byteOffset": 161056,
      "componentType": 5126,
      "count": 4003,
      "max": [
        0.967985987663269,
        0.9887189865112305
      ],
      "min": [
        0.017330000177025795,
        0.014194011688232422
      ],
      "type": "VEC2"
    },
    {
      "bufferView": 1,
      "byteOffset": 193080,
      "componentType": 5126,
      "count": 4003,
      "max": [
        0.967985987663269,
        0.9887189865112305
      ],
      "min": [
        0.017330000177025795,
        0.014194011688232422
      ],
      "type": "VEC2"
    },
    {
      "bufferView": 0,
      "byteOffset": 194496,
      "componentType": 5125,
      "count": 21102,
      "type": "SCALAR"
    },
    {
      "bufferView": 2,
      "byteOffset": 337656,
      "componentType": 5126,
      "count": 1432,
      "max": [
        65.00039672851563,
        54.55179977416992,
        108.19200134277344
      ],
      "min": [
        62.735599517822266,
        50.62179946899414,
        106.00800323486328
      ],
      "type": "VEC3"
    },
    {
      "bufferView": 2,
      "byteOffset": 354840,
      "componentType": 5126,
      "count": 1432,
      "max": [
        0.9998760223388672,
        0.9993805885314941,
        0.9999690055847168
      ],
      "min": [
        -0.9979910850524902,
        -0.9991022348403931,
        -0.9994733929634094
      ],
      "type": "VEC3"
    },
    {
      "bufferView": 3,
      "byteOffset": 225104,
      "componentType": 5126,
      "count": 1432,
      "max": [
        0.9995006918907166,
        0.9984562397003174,
        0.9991628527641296,
        1.0
      ],
      "min": [
        -0.9741213321685791,
        -0.9996682405471802,
        -0.9963723421096802,
        1.0
      ],
      "type": "VEC4"
    },
    {
      "bufferView": 1,
      "byteOffset": 225104,
      "componentType": 5126,
      "count": 1432,
      "max": [
        0.4711729884147644,
        0.9636309742927551
      ],
      "min": [
        0.15509499609470367,
        0.46150898933410645
      ],
      "type": "VEC2"
    },
    {
      "bufferView": 1,
      "byteOffset": 236560,
      "componentType": 5126,
      "count": 1432,
      "max": [
        0.4711729884147644,
        0.9636309742927551
      ],
      "min": [
        0.15509499609470367,
        0.46150898933410645
      ],
      "type": "VEC2"
    },
    {
      "bufferView": 0,
      "byteOffset": 278904,
      "componentType": 5125,
      "count": 7758,
      "type": "SCALAR"
    },
    {
      "bufferView": 2,
      "byteOffset": 372024,
      "componentType": 5126,
      "count": 1014,
      "max": [
        63.9385986328125,
        51.134700775146484,
        107.64700317382813
      ],
      "min": [
        62.52799987792969,
        47.81560134887695,
        106.59400177001953
      ],
      "type": "VEC3"
    },
    {
      "bufferView": 2,
      "byteOffset": 384192,
      "componentType": 5126,
      "count": 1014,
      "max": [
        0.9983919262886047,
        0.9993805885314941,
        0.9999690055847168
      ],
      "min": [
        -0.9989476799964905,
        -0.9996901750564575,
        -0.9997212290763855
      ],
      "type": "VEC3"
    },
    {
      "bufferView": 3,
      "byteOffset": 248016,
      "componentType": 5126,
      "count": 1014,
      "max": [
        0.9997727870941162,
        0.7833342552185059,
        0.9994128346443176,
        1.0
      ],
      "min": [
        -0.998007595539093,
        -0.9322402477264404,
        -0.999495267868042,
        1.0
      ],
      "type": "VEC4"
    },
    {
      "bufferView": 1,
      "byteOffset": 248016,
      "componentType": 5126,
      "count": 1014,
      "max": [
        0.9558219909667969,
        0.8096870183944702
      ],
      "min": [
        0.4989030063152313,
        0.5423420071601868
      ],
      "type": "VEC2"
    },
    {
      "bufferView": 1,
      "byteOffset": 256128,
      "componentType": 5126,
      "count": 1014,
      "max": [
        0.9558219909667969,
        0.8096870183944702
      ],
      "min": [
        0.4989030063152313,
        0.5423420071601868
      ],
      "type": "VEC2"
    },
    {
      "bufferView": 0,
      "byteOffset": 309936,
      "componentType": 5125,
      "count": 5568,
      "type": "SCALAR"
    },
    {
      "bufferView": 2,
      "byteOffset": 396360,
      "componentType": 5126,
      "count": 1123,
      "max": [
        63.330299377441406,
        48.15439987182617,
        107.78199768066406
      ],
      "min": [
        60.805999755859375,
        46.1161994934082,
        105.9489974975586
      ],
      "type": "VEC3"
    },
    {
      "bufferView": 2,
      "byteOffset": 409836,
      "componentType": 5126,
      "count": 1123,
      "max": [
        0.9974676370620728,
        0.9999690055847168,
        0.9999380111694336
      ],
      "min": [
        -0.9995972514152527,
        -0.9995972514152527,
        -0.9984536170959473
      ],
      "type": "VEC3"
    },
    {
      "bufferView": 3,
      "byteOffset": 264240,
      "componentType": 5126,
      "count": 1123,
      "max": [
        0.9981648921966553,
        0.9978620409965515,
        0.9782750010490417,
        1.0
      ],
      "min": [
        -0.9966366291046143,
        -0.9989377856254578,
        -0.9999527335166931,
        1.0
      ],
      "type": "VEC4"
    },
    {
      "bufferView": 1,
      "byteOffset": 264240,
      "componentType": 5126,
      "count": 1123,
      "max": [
        0.9083560109138489,
        0.3759179711341858
      ],
      "min": [
        0.037383001297712326,
        0.08406901359558105
      ],
      "type": "VEC2"
    },
    {
      "bufferView": 1,
      "byteOffset": 273224,
      "componentType": 5126,
      "count": 1123,
      "max": [
        0.9083560109138489,
        0.3759179711341858
      ],
      "min": [
        0.037383001297712326,
        0.08406901359558105
      ],
      "type": "VEC2"
    },
    {
      "bufferView": 0,
      "byteOffset": 332208,
      "componentType": 5125,
      "count": 5892,
      "type": "SCALAR"
    },
    {
      "bufferView": 2,
      "byteOffset": 423312,
      "componentType": 5126,
      "count": 1432,
      "max": [
        70.49929809570313,
        54.477699279785156,
        108.19200134277344
      ],
      "min": [
        68.28340148925781,
        50.53030014038086,
        106.00800323486328
      ],
      "type": "VEC3"
    },
    {
      "bufferView": 2,
      "byteOffset": 440496,
      "componentType": 5126,
      "count": 1432,
      "max": [
        0.9954644441604614,
        0.9978986978530884,
        0.9999690055847168
      ],
      "min": [
        -0.9999690055847168,
        -0.9998760223388672,
        -0.9994733929634094
      ],
      "type": "VEC3"
    },
    {
      "bufferView": 3,
      "byteOffset": 282208,
      "componentType": 5126,
      "count": 1432,
      "max": [
        0.9999188780784607,
        0.9988407492637634,
        0.9980489015579224,
        1.0
      ],
      "min": [
        -0.9980209469795227,
        -0.9996771812438965,
        -0.9989352822303772,
        1.0
      ],
      "type": "VEC4"
    },
    {
      "bufferView": 1,
      "byteOffset": 282208,
      "componentType": 5126,
      "count": 1432,
      "max": [
        0.5757570266723633,
        0.9636350274085999
      ],
      "min": [
        0.03371100127696991,
        0.47496598958969116
      ],
      "type": "VEC2"
    },
    {
      "bufferView": 1,
      "byteOffset": 293664,
      "componentType": 5126,
      "count": 1432,
      "max": [
        0.5757570266723633,
        0.9636350274085999
      ],
      "min": [
        0.03371100127696991,
        0.47496598958969116
      ],
      "type": "VEC2"
    },
    {
      "bufferView": 0,
      "byteOffset": 355776,
      "componentType": 5125,
      "count": 7758,
      "type": "SCALAR"
    },
    {
      "bufferView": 2,
      "byteOffset": 457680,
      "componentType": 5126,
      "count": 1014,
      "max": [
        70.56199645996094,
        51.0276985168457,
        107.64600372314453
      ],
      "min": [
        69.24669647216797,
        47.70669937133789,
        106.59500122070313
      ],
      "type": "VEC3"
    },
    {
      "bufferView": 2,
      "byteOffset": 469848,
      "componentType": 5126,
      "count": 1014,
      "max": [
        0.9995972514152527,
        0.9987623691558838,
        0.9999690055847168
      ],
      "min": [
        -0.9993805885314941,
        -0.9996901750564575,
        -0.9997212290763855
      ],
      "type": "VEC3"
    },
    {
      "bufferView": 3,
      "byteOffset": 305120,
      "componentType": 5126,
      "count": 1014,
      "max": [
        0.9997601509094238,
        0.943178653717041,
        0.9997133016586304,
        1.0
      ],
      "min": [
        -0.9995395541191101,
        -0.7881835699081421,
        -0.9994327425956726,
        1.0
      ],
      "type": "VEC4"
    },
    {
      "bufferView": 1,
      "byteOffset": 305120,
      "componentType": 5126,
      "count": 1014,
      "max": [
        0.8040840029716492,
        0.8096250295639038
      ],
      "min": [
        0.5438140034675598,
        0.5426099896430969
      ],
      "type": "VEC2"
    },
    {
      "bufferView": 1,
      "byteOffset": 313232,
      "componentType": 5126,
      "count": 1014,
      "max": [
        0.8040840029716492,
        0.8096250295639038
      ],
      "min": [
        0.5438140034675598,
        0.5426099896430969
      ],
      "type": "VEC2"
    },
    {
      "bufferView": 0,
      "byteOffset": 386808,
      "componentType": 5125,
      "count": 5568,
      "type": "SCALAR"
    },
    {
      "bufferView": 2,
      "byteOffset": 482016,
      "componentType": 5126,
      "count": 1123,
      "max": [
        72.23090362548828,
        48.044898986816406,
        107.78299713134766
      ],
      "min": [
        69.75250244140625,
        45.93090057373047,
        105.9489974975586
      ],
      "type": "VEC3"
    },
    {
      "bufferView": 2,
      "byteOffset": 495492,
      "componentType": 5126,
      "count": 1123,
      "max": [
        0.9995972514152527,
        0.9998451471328735,
        0.9999380111694336
      ],
      "min": [
        -0.9991950392723083,
        -0.9998451471328735,
        -0.9984536170959473
      ],
      "type": "VEC3"
    },
    {
      "bufferView": 3,
      "byteOffset": 321344,
      "componentType": 5126,
      "count": 1123,
      "max": [
        0.9959275722503662,
        0.9978815913200378,
        0.9775362610816956,
        1.0
      ],
      "min": [
        -0.9994887113571167,
        -0.9988422393798828,
        -0.9999522566795349,
        1.0
      ],
      "type": "VEC4"
    },
    {
      "bufferView": 1,
      "byteOffset": 321344,
      "componentType": 5126,
      "count": 1123,
      "max": [
        0.6221519708633423,
        0.3759179711341858
      ],
      "min": [
        0.2495030015707016,
        0.08406901359558105
      ],
      "type": "VEC2"
    },
    {
      "bufferView": 1,
      "byteOffset": 330328,
      "componentType": 5126,
      "count": 1123,
      "max": [
        0.6221519708633423,
        0.3759179711341858
      ],
      "min": [
        0.2495030015707016,
        0.08406901359558105
      ],
      "type": "VEC2"
    },
    {
      "bufferView": 0,
      "byteOffset": 409080,
      "componentType": 5125,
      "count": 5892,
      "type": "SCALAR"
    }
  ],
  "asset": {
    "extras": {
      "author": "qwertymonkids (https://sketchfab.com/qwertymonkids)",
      "license": "CC-BY-4.0 (http://creativecommons.org/licenses/by/4.0/)",
      "source": "https://sketchfab.com/3d-models/young-hee-squid-game-doll-033c7f62bf174f27ad8ff769ab47ba78",
      "title": "Young-Hee squid game doll"
    },
    "generator": "Sketchfab-16.73.0",
    "version": "2.0"
  },
  "bufferViews": [
    {
      "buffer": 0,
      "byteLength": 432648,
      "name": "floatBufferViews",
      "target": 34963
    },
    {
      "buffer": 0,
      "byteLength": 339312,
      "byteOffset": 432648,
      "byteStride": 8,
      "name": "floatBufferViews",
      "target": 34962
    },
    {
      "buffer": 0,
      "byteLength": 508968,
      "byteOffset": 771960,
      "byteStride": 12,
      "name": "floatBufferViews",
      "target": 34962
    },
    {
      "buffer": 0,
      "byteLength": 339312,
      "byteOffset": 1280928,
      "byteStride": 16,
      "name": "floatBufferViews",
      "target": 34962
    }
  ],
  "buffers": [
    {
      "byteLength": 1620240,
      "uri": "scene.bin"
    }
  ],
  "extensionsRequired": [
    "KHR_materials_pbrSpecularGlossiness"
  ],
  "extensionsUsed": [
    "KHR_materials_pbrSpecularGlossiness"
  ],
  "images": [
    {
      "uri": "textures/material_0_diffuse.png"
    },
    {
      "uri": "textures/material_0_normal.png"
    },
    {
      "uri": "textures/material_1_diffuse.png"
    },
    {
      "uri": "textures/material_1_normal.png"
    },
    {
      "uri": "textures/material_2_diffuse.png"
    },
    {
      "uri": "textures/material_2_normal.png"
    },
    {
      "uri": "textures/material_3_diffuse.png"
    },
    {
      "uri": "textures/material_3_normal.png"
    }
  ],
  "materials": [
    {
      "doubleSided": true,
      "extensions": {
        "KHR_materials_pbrSpecularGlossiness": {
          "diffuseFactor": [
            1.0,
            1.0,
            1.0,
            1.0
          ],
          "diffuseTexture": {
            "index": 0
          },
          "glossinessFactor": 0.639216,
          "specularFactor": [
            0.1578822298707263,
            0.1578822298707263,
            0.1578822298707263
          ],
          "specularGlossinessTexture": {
            "index": 0
          }
        }
      },
      "name": "material_0",
      "normalTexture": {
        "index": 1
      }
    },
    {
      "doubleSided": true,
      "extensions": {
        "KHR_materials_pbrSpecularGlossiness": {
          "diffuseFactor": [
            1.0,
            1.0,
            1.0,
            1.0
          ],
          "diffuseTexture": {
            "index": 2
          },
          "glossinessFactor": 0.639216,
          "specularFactor": [
            0.000492504,
            0.000492504,
            0.000492504
          ]
        }
      },
      "name": "material_1",
      "normalTexture": {
        "index": 3
      }
    },
    {
      "doubleSided": true,
      "extensions": {
        "KHR_materials_pbrSpecularGlossiness": {
          "diffuseFactor": [
            1.0,
            1.0,
            1.0,
            1.0
          ],
          "diffuseTexture": {
            "index": 4
          },
          "glossinessFactor": 0.639216,
          "specularFactor": [
            0.000492504,
            0.000492504,
            0.000492504
          ]
        }
      },
      "name": "material_2",
      "normalTexture": {
        "index": 5
      }
    },
    {
      "doubleSided": true,
      "extensions": {
        "KHR_materials_pbrSpecularGlossiness": {
          "diffuseFactor": [
            1.0,
            1.0,
            1.0,
            1.0
          ],
          "diffuseTexture": {
            "index": 6
          },
          "glossinessFactor": 0.639216,
          "specularFactor": [
            0.000492504,
            0.000492504,
            0.000492504
          ]
        }
      },
      "name": "material_3",
      "normalTexture": {
        "index": 7
      }
    }
  ],
  "meshes": [
    {
      "name": "Object_0",
      "primitives": [
        {
          "attributes": {
            "NORMAL": 1,
            "POSITION": 0,
            "TANGENT": 2,
            "TEXCOORD_0": 3,
            "TEXCOORD_1": 4
          },
          "indices": 5,
          "material": 0,
          "mode": 4
        }
      ]
    },
    {
      "name": "Object_1",
      "primitives": [
        {
          "attributes": {
            "NORMAL": 7,
            "POSITION": 6,
            "TANGENT": 8,
            "TEXCOORD_0": 9,
            "TEXCOORD_1": 10
          },
          "indices": 11,
          "material": 1,
          "mode": 4
        }
      ]
    },
    {
      "name": "Object_2",
      "primitives": [
        {
          "attributes": {
            "NORMAL": 13,
            "POSITION": 12,
            "TANGENT": 14,
            "TEXCOORD_0": 15,
            "TEXCOORD_1": 16
          },
          "indices": 17,
          "material": 2,
          "mode": 4
        }
      ]
    },
    {
      "name": "Object_3",
      "primitives": [
        {
          "attributes": {
            "NORMAL": 19,
            "POSITION": 18,
            "TANGENT": 20,
            "TEXCOORD_0": 21,
            "TEXCOORD_1": 22
          },
          "indices": 23,
          "material": 3,
          "mode": 4
        }
      ]
    },
    {
      "name": "Object_4",
      "primitives": [
        {
          "attributes": {
            "NORMAL": 25,
            "POSITION": 24,
            "TANGENT": 26,
            "TEXCOORD_0": 27,
            "TEXCOORD_1": 28
          },
          "indices": 29,
          "material": 3,
          "mode": 4
        }
      ]
    },
    {
      "name": "Object_5",
      "primitives": [
        {
          "attributes": {
            "NORMAL": 31,
            "POSITION": 30,
            "TANGENT": 32,
            "TEXCOORD_0": 33,
            "TEXCOORD_1": 34
          },
          "indices": 35,
          "material": 3,
          "mode": 4
        }
      ]
    },
    {
      "name": "Object_6",
      "primitives": [
        {
          "attributes": {
            "NORMAL": 37,
            "POSITION": 36,
            "TANGENT": 38,
            "TEXCOORD_0": 39,
            "TEXCOORD_1": 40
          },
          "indices": 41,
          "material": 3,
          "mode": 4
        }
      ]
    },
    {
      "name": "Object_7",
      "primitives": [
        {
          "attributes": {
            "NORMAL": 43,
            "POSITION": 42,
            "TANGENT": 44,
            "TEXCOORD_0": 45,
            "TEXCOORD_1": 46
          },
          "indices": 47,
          "material": 3,
          "mode": 4
        }
      ]
    },
    {
      "name": "Object_8",
      "primitives": [
        {
          "attributes": {
            "NORMAL": 49,
            "POSITION": 48,
            "TANGENT": 50,
            "TEXCOORD_0": 51,
            "TEXCOORD_1": 52
          },
          "indices": 53,
          "material": 3,
          "mode": 4
        }
      ]
    }
  ],
  "nodes": [
    {
      "children": [
        1
      ],
      "matrix": [
        1.0,
        0.0,
        0.0,
        0.0,
        0.0,
        2.220446049250313e-16,
        -1.0,
        0.0,
        0.0,
        1.0,
        2.220446049250313e-16,
        0.0,
        0.0,
        0.0,
        0.0,
        1.0
      ],
      "name": "Sketchfab_model"
    },
    {
      "children": [
        2
      ],
      "name": "root"
    },
    {
      "children": [
        3
      ],
      "matrix": [
        1.0,
        0.0,
        0.0,
        0.0,
        0.0,
        2.220446049250313e-16,
        1.0,
        0.0,
        0.0,
        -1.0,
        2.220446049250313e-16,
        0.0,
        0.0,
        0.0,
        0.0,
        1.0
      ],
      "name": "GLTF_SceneRootNode"
    },
    {
      "children": [
        4,
        5,
        6,
        7,
        8,
        9,
        10,
        11,
        12
      ],
      "name": "Asset3DLoader.sceneRoot_0"
    },
    {
      "mesh": 0,
      "name": "Object_4"
    },
    {
      "mesh": 1,
      "name": "Object_5"
    },
    {
      "mesh": 2,
      "name": "Object_6"
    },
    {
      "mesh": 3,
      "name": "Object_7"
    },
    {
      "mesh": 4,
      "name": "Object_8"
    },
    {
      "mesh": 5,
      "name": "Object_9"
    },
    {
      "mesh": 6,
      "name": "Object_10"
    },
    {
      "mesh": 7,
      "name": "Object_11"
    },
    {
      "mesh": 8,
      "name": "Object_12"
    }
  ],
  "samplers": [
    {
      "magFilter": 9729,
      "minFilter": 9987,
      "wrapS": 10497,
      "wrapT": 10497
    }
  ],
  "scene": 0,
  "scenes": [
    {
      "name": "Sketchfab_Scene",
      "nodes": [
        0
      ]
    }
  ],
  "textures": [
    {
      "sampler": 0,
      "source": 0
    },
    {
      "sampler": 0,
      "source": 1
    },
    {
      "sampler": 0,
      "source": 2
    },
    {
      "sampler": 0,
      "source": 3
    },
    {
      "sampler": 0,
      "source": 4
    },
    {
      "sampler": 0,
      "source": 5
    },
    {
      "sampler": 0,
      "source": 6
    },
    {
      "sampler": 0,
      "source": 7
    }
  ]
}
