{
  "accessors": [
    {
      "bufferView": 2,
      "componentType": 5126,
      "count": 1775,
      "max": [
        0.006824813783168793,
        0.2404952347278595,
        0.032029274851083755
      ],
      "min": [
        -0.00682481424883008,
        -0.16869951784610748,
        -0.05075405165553093
      ],
      "type": "VEC3"
    },
    {
      "bufferView": 2,
      "byteOffset": 21300,
      "componentType": 5126,
      "count": 1775,
      "max": [
        1.0,
        1.0,
        0.9999916553497314
      ],
      "min": [
        -1.0,
        -1.0,
        -0.9988617897033691
      ],
      "type": "VEC3"
    },
    {
      "bufferView": 3,
      "componentType": 5126,
      "count": 1775,
      "max": [
        1.0,
        0.999113917350769,
        0.9999295473098755,
        1.0
      ],
      "min": [
        -1.0,
        -0.9998469352722168,
        -0.9999295473098755,
        1.0
      ],
      "type": "VEC4"
    },
    {
      "bufferView": 1,
      "componentType": 5126,
      "count": 1775,
      "max": [
        0.8802319765090942,
        0.9974312782287598
      ],
      "min": [
        0.002568825613707304,
        0.0025687813758850098
      ],
      "type": "VEC2"
    },
    {
      "bufferView": 1,
      "byteOffset": 14200,
      "componentType": 5126,
      "count": 1775,
      "max": [
        0.8802319765090942,
        0.9974312782287598
      ],
      "min": [
        0.002568825613707304,
        0.0025687813758850098
      ],
      "type": "VEC2"
    },
    {
      "bufferView": 1,
      "byteOffset": 28400,
      "componentType": 5126,
      "count": 1775,
      "max": [
        0.8802319765090942,
        0.9974312782287598
      ],
      "min": [
        0.002568825613707304,
        0.0025687813758850098
      ],
      "type": "VEC2"
    },
    {
      "bufferView": 1,
      "byteOffset": 42600,
      "componentType": 5126,
      "count": 1775,
      "max": [
        0.8802319765090942,
        0.9974312782287598
      ],
      "min": [
        0.002568825613707304,
        0.0025687813758850098
      ],
      "type": "VEC2"
    },
    {
      "bufferView": 0,
      "componentType": 5125,
      "count": 7752,
      "type": "SCALAR"
    }
  ],
  "asset": {
    "extras": {
      "author": "Blenzy (https://sketchfab.com/Blenzy)",
      "license": "CC-BY-4.0 (http://creativecommons.org/licenses/by/4.0/)",
      "source": "https://sketchfab.com/3d-models/brandless-combat-survival-knife-75125143837247ff9d306428ac2252f9",
      "title": "Brandless Combat Survival Knife"
    },
    "generator": "Sketchfab-16.95.0",
    "version": "2.0"
  },
  "bufferViews": [
    {
      "buffer": 0,
      "byteLength": 31008,
      "name": "floatBufferViews",
      "target": 34963
    },
    {
      "buffer": 0,
      "byteLength": 56800,
      "byteOffset": 31008,
      "byteStride": 8,
      "name": "floatBufferViews",
      "target": 34962
    },
    {
      "buffer": 0,
      "byteLength": 42600,
      "byteOffset": 87808,
      "byteStride": 12,
      "name": "floatBufferViews",
      "target": 34962
    },
    {
      "buffer": 0,
      "byteLength": 28400,
      "byteOffset": 130408,
      "byteStride": 16,
      "name": "floatBufferViews",
      "target": 34962
    }
  ],
  "buffers": [
    {
      "byteLength": 158808,
      "uri": "scene.bin"
    }
  ],
  "images": [
    {
      "uri": "textures/New_knife_handle_baseColor.png"
    },
    {
      "uri": "textures/New_knife_handle_metallicRoughness.png"
    },
    {
      "uri": "textures/New_knife_handle_normal.png"
    }
  ],
  "materials": [
    {
      "doubleSided": true,
      "name": "New_knife_handle",
      "normalTexture": {
        "index": 2
      },
      "pbrMetallicRoughness": {
        "baseColorTexture": {
          "index": 0
        },
        "metallicRoughnessTexture": {
          "index": 1
        }
      }
    }
  ],
  "meshes": [
    {
      "name": "Object_0",
      "primitives": [
        {
          "attributes": {
            "NORMAL": 1,
            "POSITION": 0,
            "TANGENT": 2,
            "TEXCOORD_0": 3,
            "TEXCOORD_1": 4,
            "TEXCOORD_2": 5,
            "TEXCOORD_3": 6
          },
          "indices": 7,
          "material": 0,
          "mode": 4
        }
      ]
    }
  ],
  "nodes": [
    {
      "children": [
        1
      ],
      "matrix": [
        1.0,
        0.0,
        0.0,
        0.0,
        0.0,
        2.220446049250313e-16,
        -1.0,
        0.0,
        0.0,
        1.0,
        2.220446049250313e-16,
        0.0,
        0.0,
        0.0,
        0.0,
        1.0
      ],
      "name": "Sketchfab_model"
    },
    {
      "children": [
        2
      ],
      "name": "root"
    },
    {
      "children": [
        3
      ],
      "matrix": [
        1.0,
        0.0,
        0.0,
        0.0,
        0.0,
        2.220446049250313e-16,
        1.0,
        0.0,
        0.0,
        -1.0,
        2.220446049250313e-16,
        0.0,
        0.0,
        0.0,
        0.0,
        1.0
      ],
      "name": "GLTF_SceneRootNode"
    },
    {
      "children": [
        4
      ],
      "name": "New knife handle_0"
    },
    {
      "mesh": 0,
      "name": "Object_4"
    }
  ],
  "samplers": [
    {
      "magFilter": 9729,
      "minFilter": 9987,
      "wrapS": 10497,
      "wrapT": 10497
    }
  ],
  "scene": 0,
  "scenes": [
    {
      "name": "Sketchfab_Scene",
      "nodes": [
        0
      ]
    }
  ],
  "textures": [
    {
      "sampler": 0,
      "source": 0
    },
    {
      "sampler": 0,
      "source": 1
    },
    {
      "sampler": 0,
      "source": 2
    }
  ]
}
